<svg width="240" height="64" viewBox="0 0 240 64" fill="none" xmlns="http://www.w3.org/2000/svg">
  <rect x="4" y="4" width="56" height="56" rx="16" fill="#0E7490"/>
  <path d="M20 21H27V30H37V21H44V44H37V35H27V44H20V21Z" fill="#E6FFFA"/>
  <path d="M72 24H82.5C89.7 24 94 27.9 94 33.9C94 40 89.7 44 82.5 44H72V24ZM82.1 39C85.7 39 88 37 88 33.9C88 30.9 85.7 29 82.1 29H78V39H82.1Z" fill="#E2E8F0"/>
  <path d="M98.5 24H114.5V28.8H104.4V31.8H113.4V36.2H104.4V39.2H114.8V44H98.5V24Z" fill="#E2E8F0"/>
  <path d="M117.5 24H123.6L131.8 34.3V24H137.7V44H132.4L123.4 32.9V44H117.5V24Z" fill="#E2E8F0"/>
  <path d="M146.2 29.1H140.2V24H158.2V29.1H152.2V44H146.2V29.1Z" fill="#E2E8F0"/>
  <path d="M160.1 24H176.1V28.8H166V31.8H175V36.2H166V39.2H176.4V44H160.1V24Z" fill="#E2E8F0"/>
  <path d="M184.2 29.1H178.2V24H196.2V29.1H190.2V44H184.2V29.1Z" fill="#E2E8F0"/>
  <circle cx="214" cy="32" r="8" fill="#22D3EE"/>
  <circle cx="228" cy="32" r="8" fill="#0891B2"/>
</svg>
